<svg width="98" height="97" viewBox="0 0 98 97" fill="none" xmlns="http://www.w3.org/2000/svg">
<rect width="98" height="97" rx="23" fill="#1E293B"/>
<path d="M39.99 58.04H22.49L18.43 70.71H8L25.5 21H36.98L54.48 70.71H44.05L39.99 58.04ZM37.26 49.49L31.26 30.59L25.26 49.49H37.26Z" fill="#A5A6FF"/>
<path d="M88.4301 55.5898H67.3601C68.1301 60.9798 71.3601 63.5898 76.5301 63.5898C79.3541 63.6659 82.1593 63.109 84.7401 61.9599L86.6301 68.6799C84.0401 70.2899 79.0001 71.4798 74.6301 71.4798C64.2001 71.4798 57.0601 64.6899 57.0601 53.4799C57.0601 42.8999 63.7801 35.6899 74.2101 35.6899C83.7301 35.6899 89.5401 42.2699 89.5401 53.6899L88.4301 55.5898ZM67.3601 49.9899H79.3601C78.8001 45.1499 76.9801 43.3299 73.8301 43.3299C70.5101 43.3299 68.0601 45.4299 67.3601 49.9899Z" fill="#A5A6FF"/>
</svg>
