<svg width="90" height="90" viewBox="0 0 90 90" fill="none" xmlns="http://www.w3.org/2000/svg">
<path d="M36.25 56.8H18.75L14.69 69.47H4.26001L21.76 19.76H33.24L50.74 69.47H40.31L36.25 56.8ZM33.52 48.25L27.52 29.35L21.52 48.25H33.52Z" fill="#A5A6FF"/>
<path d="M84.6901 54.3499H63.6201C64.3901 59.7399 67.6201 62.3499 72.7901 62.3499C75.6141 62.426 78.4193 61.8691 81.0001 60.72L82.8901 67.44C80.3001 69.05 75.2601 70.2399 70.8901 70.2399C60.4601 70.2399 53.3201 63.45 53.3201 52.24C53.3201 41.66 60.0401 34.45 70.4701 34.45C79.9901 34.45 85.8001 41.03 85.8001 52.45L84.6901 54.3499ZM63.6201 48.75H75.6201C75.0601 43.91 73.2401 42.09 70.0901 42.09C66.7701 42.09 64.3201 44.19 63.6201 48.75Z" fill="#A5A6FF"/>
</svg>
