<svg width="90" height="90" viewBox="0 0 90 90" fill="none" xmlns="http://www.w3.org/2000/svg">
<path d="M62.4652 73.8507C74.9897 71.0789 82.99 59.2251 80.7868 46.5882C79.7262 40.5054 75.6568 35.6656 68.8412 30.7583C61.5126 25.4817 53.3045 18.8859 53.3045 18.8859C50.8127 16.9805 46.782 13.1696 43.5574 16.0277C40.3328 18.8859 43.8505 20.7181 47.0751 23.2831C49.3321 25.0784 52.7181 28.0467 52.7181 28.0467H26.3351C24.5029 28.0467 19.666 27.3139 18.5666 31.9309C17.7463 35.3754 22.1578 35.3754 25.5289 35.3754H36.8882L12.1908 54.4298C10.7984 55.3826 5.96143 59.0469 8.96606 62.7845C11.5583 66.0091 16.3681 62.7845 17.3941 61.7585L30.6588 50.9854C30.6588 50.9854 29.0467 60.2195 38.1342 68.0611C43.9713 73.5758 53.5243 75.8295 62.4652 73.8507Z" fill="#E87620"/>
<ellipse cx="55.7962" cy="49.3731" rx="15.5367" ry="13.9977" fill="white"/>
<ellipse cx="56.0893" cy="48.9333" rx="9.96695" ry="9.01423" fill="#295886"/>
</svg>
