<svg width="98" height="97" viewBox="0 0 98 97" fill="none" xmlns="http://www.w3.org/2000/svg">
<rect width="98" height="97" rx="23" fill="#1E293B"/>
<path d="M66.82 76.1753C80.346 73.1818 88.986 60.3803 86.6066 46.7329C85.4612 40.1638 81.0665 34.937 73.7059 29.6373C65.7913 23.9388 56.9269 16.8156 56.9269 16.8156C54.2359 14.7578 49.8829 10.6422 46.4004 13.7289C42.918 16.8156 46.717 18.7943 50.1995 21.5644C52.6369 23.5033 56.2936 26.7089 56.2936 26.7089H27.8011C25.8224 26.7089 20.5988 25.9175 19.4114 30.9037C18.5256 34.6235 23.2898 34.6235 26.9305 34.6235H39.198L12.5259 55.2015C11.0221 56.2304 5.79844 60.1878 9.0433 64.2242C11.8428 67.7066 17.0372 64.2242 18.1453 63.1162L32.4706 51.4817C32.4706 51.4817 30.7295 61.4541 40.5436 69.9227C46.8475 75.8783 57.1643 78.3122 66.82 76.1753Z" fill="#E87620"/>
<ellipse cx="59.6179" cy="49.7405" rx="16.779" ry="15.1169" fill="white"/>
<ellipse cx="59.9343" cy="49.2656" rx="10.7639" ry="9.73498" fill="#295886"/>
</svg>
