<svg width="45" height="45" viewBox="0 0 45 45" fill="none" xmlns="http://www.w3.org/2000/svg">
<g clip-path="url(#clip0_2285_3232)">
<path d="M33.0116 39.821C40.5388 38.1551 45.347 31.0311 44.0228 23.4363C43.3854 19.7806 40.9398 16.8719 36.8436 13.9226C32.4391 10.7514 27.5061 6.78738 27.5061 6.78738C26.0086 5.64222 23.5861 3.35189 21.6481 5.06963C19.7102 6.78738 21.8243 7.8885 23.7623 9.43007C25.1187 10.509 27.1537 12.293 27.1537 12.293H11.2976C10.1965 12.293 7.28954 11.8525 6.62878 14.6273C6.13583 16.6975 8.78706 16.6975 10.8131 16.6975H17.64L2.79699 28.1491C1.96012 28.7217 -0.946849 30.9239 0.858916 33.1702C2.41683 35.1082 5.30752 33.1702 5.92415 32.5536L13.8962 26.079C13.8962 26.079 12.9273 31.6286 18.3888 36.3414C21.8969 39.6557 27.6382 41.0102 33.0116 39.821Z" fill="#E87620"/>
<ellipse cx="29.0045" cy="25.1101" rx="9.3375" ry="8.41256" fill="white"/>
<ellipse cx="29.1805" cy="24.8458" rx="5.99009" ry="5.41751" fill="#295886"/>
</g>
<defs>
<clipPath id="clip0_2285_3232">
<rect width="44.5199" height="44.5199" fill="white"/>
</clipPath>
</defs>
</svg>
