<svg width="90" height="90" viewBox="0 0 90 90" fill="none" xmlns="http://www.w3.org/2000/svg">
<path d="M78.74 43.89C78.74 63.28 65.5 77.73 46 77.73C26.5 77.73 13.32 64.41 13.32 45C13.32 25.59 26.56 12.3 46 12.3C65.44 12.3 78.74 28.1 78.74 43.89Z" fill="#64748B"/>
<path d="M51.67 65.03C65.9963 65.03 77.61 53.4163 77.61 39.09C77.61 24.7638 65.9963 13.15 51.67 13.15C37.3437 13.15 25.73 24.7638 25.73 39.09C25.73 53.4163 37.3437 65.03 51.67 65.03Z" fill="#334155"/>
<path d="M76.49 29.22C79.64 31.49 81 38.79 81 44.87C81.0297 51.8481 78.9876 58.678 75.1324 64.4946C71.2771 70.3111 65.7823 74.8525 59.3439 77.5435C52.9054 80.2345 45.8132 80.954 38.9655 79.6109C32.1178 78.2677 25.8228 74.9224 20.878 69.9986C15.9332 65.0748 12.561 58.7942 11.1887 51.9523C9.81637 45.1104 10.5056 38.0151 13.1691 31.5653C15.8327 25.1155 20.3506 19.6013 26.1507 15.7213C31.9507 11.8413 38.7718 9.77008 45.75 9.77002C50.1015 9.8076 54.4068 10.666 58.44 12.3C59.44 12.71 61.82 16.82 58.44 19.07C57.0082 19.9584 55.4987 20.7149 53.93 21.33C51.6813 21.9019 49.4051 22.3592 47.11 22.7C42.8862 23.2848 38.7407 24.3379 34.75 25.84C28.69 27.84 19.88 36.15 17.83 45.02C14.45 59.68 22.34 66.45 25.73 69.83C30.33 74.43 40.73 77.29 51.67 71.98C58.44 68.7 62.4 61.73 65.21 55.17C68.59 47.27 67.48 34.85 71.98 30.35C74.23 28.1 75.42 28.46 76.49 29.22Z" fill="white"/>
</svg>
