<svg width="21" height="21" viewBox="0 0 21 21" fill="none" xmlns="http://www.w3.org/2000/svg">
<path d="M7.13522 1.61309C8.18114 1.21688 9.31524 1 10.5 1C13.1342 1 15.518 2.07213 17.2388 3.80383M7.13522 1.61309C3.93615 2.82498 1.56211 5.71465 1.08711 9.20807M7.13522 1.61309C11.5 7.5 13.5 12 14.8661 18.9395M14.8661 18.9395C13.5589 19.6171 12.0741 20 10.5 20C7.98558 20 5.69931 19.0231 4 17.4282M14.8661 18.9395C17.6834 17.479 19.6764 14.6493 19.9641 11.3316M4 17.4282C2.15346 15.6952 1 13.2323 1 10.5C1 10.0618 1.02967 9.63052 1.08711 9.20807M4 17.4282C8.30441 11.3316 14.5 9.5 19.9641 11.3316M19.9641 11.3316C19.9879 11.0575 20 10.7802 20 10.5C20 7.88749 18.9454 5.52128 17.2388 3.80383M1.08711 9.20807C8 10 14.5 7 17.2388 3.80383" stroke="#475569" stroke-width="1.5"/>
</svg>
