<svg width="90" height="90" viewBox="0 0 90 90" fill="none" xmlns="http://www.w3.org/2000/svg">
<path d="M44.4999 7.55999V32.85H30.6499C28.9594 32.8975 27.2766 32.6056 25.7008 31.9915C24.1251 31.3775 22.6885 30.4537 21.476 29.2748C20.2635 28.0959 19.2997 26.6858 18.6415 25.128C17.9834 23.5701 17.6443 21.8961 17.6443 20.205C17.6443 18.5138 17.9834 16.8399 18.6415 15.282C19.2997 13.7242 20.2635 12.3141 21.476 11.1352C22.6885 9.95633 24.1251 9.03253 25.7008 8.41844C27.2766 7.80435 28.9594 7.51245 30.6499 7.55999H44.4999Z" fill="#FD6A47"/>
<path d="M44.5 32.85V58.15H30.65C27.295 58.15 24.0774 56.8172 21.7051 54.4449C19.3328 52.0725 18 48.855 18 45.5C18 42.145 19.3328 38.9274 21.7051 36.5551C24.0774 34.1827 27.295 32.85 30.65 32.85H44.5Z" fill="#A86DFC"/>
<path d="M44.5 7.55999V32.85H58.35C60.0405 32.8975 61.7233 32.6056 63.2991 31.9915C64.8748 31.3775 66.3114 30.4537 67.5239 29.2748C68.7364 28.0959 69.7002 26.6858 70.3584 25.128C71.0165 23.5701 71.3556 21.8961 71.3556 20.205C71.3556 18.5138 71.0165 16.8399 70.3584 15.282C69.7002 13.7242 68.7364 12.3141 67.5239 11.1352C66.3114 9.95633 64.8748 9.03253 63.2991 8.41844C61.7233 7.80435 60.0405 7.51245 58.35 7.55999H44.5Z" fill="#FD887C"/>
<path d="M57.15 58.15C64.1364 58.15 69.8 52.4864 69.8 45.5C69.8 38.5136 64.1364 32.85 57.15 32.85C50.1636 32.85 44.5 38.5136 44.5 45.5C44.5 52.4864 50.1636 58.15 57.15 58.15Z" fill="#5ACEFD"/>
<path d="M44.4999 70.8C44.4999 73.302 43.758 75.7477 42.368 77.828C40.978 79.9083 39.0023 81.5297 36.6908 82.4871C34.3793 83.4445 31.8359 83.6951 29.382 83.207C26.9281 82.7189 24.6741 81.5141 22.905 79.7449C21.1359 77.9758 19.9311 75.7218 19.443 73.2679C18.9549 70.8141 19.2054 68.2706 20.1628 65.9591C21.1203 63.6476 22.7416 61.6719 24.8219 60.2819C26.9022 58.8919 29.348 58.15 31.8499 58.15H44.4999V70.8Z" fill="#2CDB92"/>
</svg>
