<svg width="45" height="45" viewBox="0 0 45 45" fill="none" xmlns="http://www.w3.org/2000/svg">
<path d="M22.1806 1.11582V15.1907H14.4725C13.5317 15.2172 12.5951 15.0547 11.7181 14.713C10.8412 14.3712 10.0417 13.8571 9.36687 13.201C8.69207 12.5449 8.15567 11.7601 7.78936 10.8931C7.4231 10.0261 7.23438 9.09445 7.23438 8.15329C7.23438 7.21206 7.4231 6.28047 7.78936 5.41344C8.15567 4.54646 8.69207 3.76168 9.36687 3.10557C10.0417 2.44948 10.8412 1.93535 11.7181 1.59358C12.5951 1.25182 13.5317 1.08936 14.4725 1.11582H22.1806Z" fill="#FD6A47"/>
<path d="M22.181 15.1907V29.2712H14.4729C12.6057 29.2712 10.8149 28.5294 9.49466 27.2091C8.17437 25.8888 7.43262 24.0981 7.43262 22.2309C7.43262 20.3637 8.17437 18.573 9.49466 17.2527C10.8149 15.9324 12.6057 15.1907 14.4729 15.1907H22.181Z" fill="#A86DFC"/>
<path d="M22.1807 1.11582V15.1907H29.8888C30.8296 15.2172 31.7661 15.0547 32.6431 14.713C33.5201 14.3712 34.3196 13.8571 34.9944 13.201C35.6692 12.5449 36.2056 11.7601 36.5719 10.8931C36.9382 10.0261 37.1269 9.09445 37.1269 8.15329C37.1269 7.21206 36.9382 6.28047 36.5719 5.41344C36.2056 4.54646 35.6692 3.76168 34.9944 3.10557C34.3196 2.44948 33.5201 1.93535 32.6431 1.59358C31.7661 1.25182 30.8296 1.08936 29.8888 1.11582H22.1807Z" fill="#FD887C"/>
<path d="M29.2209 29.2712C33.1091 29.2712 36.2612 26.1191 36.2612 22.2309C36.2612 18.3427 33.1091 15.1907 29.2209 15.1907C25.3327 15.1907 22.1807 18.3427 22.1807 22.2309C22.1807 26.1191 25.3327 29.2712 29.2209 29.2712Z" fill="#5ACEFD"/>
<path d="M22.1801 36.3115C22.1801 37.704 21.7672 39.0651 20.9936 40.2229C20.22 41.3806 19.1204 42.283 17.834 42.8158C16.5476 43.3487 15.132 43.4881 13.7664 43.2165C12.4007 42.9448 11.1462 42.2743 10.1616 41.2897C9.17706 40.3051 8.50654 39.0507 8.23489 37.685C7.96324 36.3193 8.10266 34.9038 8.63549 33.6173C9.16838 32.3309 10.0707 31.2313 11.2285 30.4577C12.3862 29.6841 13.7474 29.2712 15.1398 29.2712H22.1801V36.3115Z" fill="#2CDB92"/>
</svg>
