<svg width="98" height="97" viewBox="0 0 98 97" fill="none" xmlns="http://www.w3.org/2000/svg">
<rect width="98" height="97" rx="23" fill="#1E293B"/>
<path d="M48.8556 11.005V36.295H35.0056C33.3151 36.3425 31.6323 36.0506 30.0565 35.4365C28.4808 34.8225 27.0442 33.8987 25.8317 32.7198C24.6192 31.5409 23.6554 30.1308 22.9972 28.573C22.3391 27.0151 22 25.3411 22 23.65C22 21.9588 22.3391 20.2849 22.9972 18.727C23.6554 17.1692 24.6192 15.7591 25.8317 14.5802C27.0442 13.4013 28.4808 12.4775 30.0565 11.8634C31.6323 11.2494 33.3151 10.9575 35.0056 11.005H48.8556Z" fill="#FD6A47"/>
<path d="M48.8557 36.295V61.595H35.0057C31.6507 61.595 28.4331 60.2622 26.0608 57.8899C23.6885 55.5175 22.3557 52.3 22.3557 48.945C22.3557 45.59 23.6885 42.3724 26.0608 40.0001C28.4331 37.6277 31.6507 36.295 35.0057 36.295H48.8557Z" fill="#A86DFC"/>
<path d="M48.8557 11.005V36.295H62.7057C64.3962 36.3425 66.079 36.0506 67.6548 35.4365C69.2305 34.8225 70.6671 33.8987 71.8796 32.7198C73.0921 31.5409 74.0559 30.1308 74.7141 28.573C75.3722 27.0151 75.7113 25.3411 75.7113 23.65C75.7113 21.9588 75.3722 20.2849 74.7141 18.727C74.0559 17.1692 73.0921 15.7591 71.8796 14.5802C70.6671 13.4013 69.2305 12.4775 67.6548 11.8634C66.079 11.2494 64.3962 10.9575 62.7057 11.005H48.8557Z" fill="#FD887C"/>
<path d="M61.5057 61.595C68.4921 61.595 74.1557 55.9314 74.1557 48.945C74.1557 41.9586 68.4921 36.295 61.5057 36.295C54.5193 36.295 48.8557 41.9586 48.8557 48.945C48.8557 55.9314 54.5193 61.595 61.5057 61.595Z" fill="#5ACEFD"/>
<path d="M48.8556 74.245C48.8556 76.747 48.1137 79.1927 46.7237 81.273C45.3337 83.3533 43.358 84.9747 41.0465 85.9321C38.735 86.8895 36.1916 87.1401 33.7377 86.652C31.2838 86.1639 29.0298 84.9591 27.2607 83.1899C25.4916 81.4208 24.2868 79.1668 23.7987 76.7129C23.3106 74.2591 23.5611 71.7156 24.5185 69.4041C25.476 67.0926 27.0973 65.1169 29.1776 63.7269C31.2579 62.3369 33.7037 61.595 36.2056 61.595H48.8556V74.245Z" fill="#2CDB92"/>
</svg>
