<svg width="90" height="90" viewBox="0 0 90 90" fill="none" xmlns="http://www.w3.org/2000/svg">
<path d="M44.5 7.55999V32.85H30.65C28.9595 32.8975 27.2767 32.6056 25.7009 31.9915C24.1252 31.3775 22.6886 30.4537 21.4761 29.2748C20.2636 28.0959 19.2998 26.6858 18.6416 25.128C17.9835 23.5701 17.6444 21.8961 17.6444 20.205C17.6444 18.5138 17.9835 16.8399 18.6416 15.282C19.2998 13.7242 20.2636 12.3141 21.4761 11.1352C22.6886 9.95633 24.1252 9.03253 25.7009 8.41844C27.2767 7.80435 28.9595 7.51245 30.65 7.55999H44.5Z" fill="#475569"/>
<path d="M44.5 32.85V58.15H30.65C27.295 58.15 24.0774 56.8172 21.7051 54.4449C19.3328 52.0725 18 48.855 18 45.5C18 42.145 19.3328 38.9274 21.7051 36.5551C24.0774 34.1827 27.295 32.85 30.65 32.85H44.5Z" fill="#94A3B8"/>
<path d="M44.5 7.55999V32.85H58.35C60.0405 32.8975 61.7233 32.6056 63.2991 31.9915C64.8748 31.3775 66.3114 30.4537 67.5239 29.2748C68.7364 28.0959 69.7002 26.6858 70.3584 25.128C71.0165 23.5701 71.3556 21.8961 71.3556 20.205C71.3556 18.5138 71.0165 16.8399 70.3584 15.282C69.7002 13.7242 68.7364 12.3141 67.5239 11.1352C66.3114 9.95633 64.8748 9.03253 63.2991 8.41844C61.7233 7.80435 60.0405 7.51245 58.35 7.55999H44.5Z" fill="#334155"/>
<path d="M57.15 58.15C64.1364 58.15 69.8 52.4864 69.8 45.5C69.8 38.5136 64.1364 32.85 57.15 32.85C50.1636 32.85 44.5 38.5136 44.5 45.5C44.5 52.4864 50.1636 58.15 57.15 58.15Z" fill="#F1F5F9"/>
<path d="M44.5 70.8C44.5 73.302 43.7581 75.7477 42.3681 77.828C40.9781 79.9083 39.0024 81.5297 36.6909 82.4871C34.3794 83.4445 31.836 83.6951 29.3821 83.207C26.9282 82.7189 24.6742 81.5141 22.9051 79.7449C21.136 77.9758 19.9312 75.7218 19.4431 73.2679C18.955 70.8141 19.2055 68.2706 20.1629 65.9591C21.1204 63.6476 22.7417 61.6719 24.822 60.2819C26.9023 58.8919 29.3481 58.15 31.85 58.15H44.5V70.8Z" fill="white"/>
</svg>
