<svg width="90" height="90" viewBox="0 0 90 90" fill="none" xmlns="http://www.w3.org/2000/svg">
<path d="M19.3101 17H29.2501V66.7H19.3101V17Z" fill="#FC3768"/>
<path d="M70.6901 16.34V66.74H62L61.16 63.1C59.8276 64.5203 58.2089 65.6416 56.4109 66.3897C54.6129 67.1379 52.6766 67.4959 50.73 67.44C42.54 67.44 36.8 60.72 36.8 49.87C36.8 39.02 43.45 31.74 53.6 31.74C56.0394 31.7302 58.4609 32.1569 60.75 33V17.74L70.6901 16.34ZM54.3101 59.34C56.7142 59.2296 58.999 58.261 60.75 56.61V41C58.9377 40.2033 56.9797 39.7913 55 39.79C50.1 39.79 47 43.43 47 49.73C47 56.03 50.0001 59.32 54.3101 59.32V59.34Z" fill="#FC3768"/>
</svg>
