<svg width="98" height="97" viewBox="0 0 98 97" fill="none" xmlns="http://www.w3.org/2000/svg">
<rect width="98" height="97" rx="23" fill="#48031F"/>
<path d="M24 21.66H33.94V71.36H24V21.66Z" fill="#FC3768"/>
<path d="M75.38 21V71.4H66.69L65.85 67.76C64.5176 69.1803 62.8989 70.3016 61.1009 71.0497C59.3029 71.7979 57.3666 72.1559 55.42 72.1C47.23 72.1 41.49 65.38 41.49 54.53C41.49 43.68 48.14 36.4 58.29 36.4C60.7294 36.3902 63.1509 36.8169 65.44 37.66V22.4L75.38 21ZM59 64C61.4041 63.8896 63.689 62.921 65.44 61.27V45.66C63.6277 44.8633 61.6697 44.4513 59.69 44.45C54.79 44.45 51.69 48.09 51.69 54.39C51.69 60.69 54.69 63.98 59 63.98V64Z" fill="#FC3768"/>
</svg>
