<svg width="90" height="90" viewBox="0 0 90 90" fill="none" xmlns="http://www.w3.org/2000/svg">
<path d="M25.2599 27.58C28.9216 27.58 31.8899 24.6117 31.8899 20.95C31.8899 17.2884 28.9216 14.32 25.2599 14.32C21.5983 14.32 18.6299 17.2884 18.6299 20.95C18.6299 24.6117 21.5983 27.58 25.2599 27.58Z" fill="white"/>
<path d="M77.3199 63.55C75.5099 66.92 74.6999 68.4 72.9999 68.4C72.1299 68.4 71.8699 67.8 71.8699 67.11C71.9441 66.2926 72.088 65.483 72.2999 64.69L76.7099 47.14C77.1886 45.4197 77.4803 43.6528 77.5799 41.87C77.5799 35.74 73.9499 32.37 66.8599 32.37C61.1599 32.37 55.1099 37.47 51.2199 41.87H50.8699L53.1199 33.15L33.7999 33.26L31.7999 41.87H39.3199L35.7199 56.56C31.5999 61.37 23.3299 68.4 22.2399 68.4C22.0651 68.3939 21.8933 68.3522 21.7351 68.2776C21.5769 68.2031 21.4354 68.0971 21.3195 67.9661C21.2035 67.8352 21.1153 67.682 21.0604 67.5159C21.0055 67.3498 20.9849 67.1743 20.9999 67C21.0727 66.0671 21.2165 65.1411 21.4299 64.23L28.9999 33.06L9.18994 33.26L6.68994 41.87H14.2899L9.70994 61.06C9.36994 62.53 8.23994 66.93 8.23994 68.92C8.23994 74.28 10.2399 76.52 17.2399 76.52C22.5699 76.52 29.7699 69.92 33.8099 64.52L31.0699 75.75L43.7699 75L48.6099 55.3C50.0799 49.39 55.9999 40.92 61.9199 40.92C63.9899 40.92 64.7699 41.92 64.7699 43.92C64.7073 45.0643 64.5024 46.1964 64.1599 47.29L60.2699 62.44C59.6241 64.5476 59.2182 66.7214 59.0599 68.92C59.0599 74.19 61.1399 76.33 67.7899 76.52C77.3199 76.8 80.2299 68.64 82.9999 63.52L77.3199 63.55Z" fill="white"/>
</svg>
