<svg width="90" height="90" viewBox="0 0 90 90" fill="none" xmlns="http://www.w3.org/2000/svg">
<path d="M25.26 27.58C28.9217 27.58 31.89 24.6117 31.89 20.95C31.89 17.2884 28.9217 14.32 25.26 14.32C21.5984 14.32 18.63 17.2884 18.63 20.95C18.63 24.6117 21.5984 27.58 25.26 27.58Z" fill="#475569"/>
<path d="M77.32 63.55C75.51 66.92 74.7 68.4 73 68.4C72.13 68.4 71.87 67.8 71.87 67.11C71.9442 66.2926 72.0881 65.483 72.3 64.69L76.71 47.14C77.1887 45.4197 77.4804 43.6528 77.58 41.87C77.58 35.74 73.95 32.37 66.86 32.37C61.16 32.37 55.11 37.47 51.22 41.87H50.87L53.12 33.15L33.8 33.26L31.8 41.87H39.32L35.72 56.56C31.6 61.37 23.33 68.4 22.24 68.4C22.0652 68.3939 21.8934 68.3522 21.7352 68.2776C21.577 68.2031 21.4355 68.0971 21.3196 67.9661C21.2036 67.8352 21.1154 67.682 21.0605 67.5159C21.0056 67.3498 20.985 67.1743 21 67C21.0728 66.0671 21.2166 65.1411 21.43 64.23L29 33.06L9.19 33.26L6.69 41.87H14.29L9.71 61.06C9.37 62.53 8.24 66.93 8.24 68.92C8.24 74.28 10.24 76.52 17.24 76.52C22.57 76.52 29.77 69.92 33.81 64.52L31.07 75.75L43.77 75L48.61 55.3C50.08 49.39 56 40.92 61.92 40.92C63.99 40.92 64.77 41.92 64.77 43.92C64.7074 45.0643 64.5025 46.1964 64.16 47.29L60.27 62.44C59.6242 64.5476 59.2183 66.7214 59.06 68.92C59.06 74.19 61.14 76.33 67.79 76.52C77.32 76.8 80.23 68.64 83 63.52L77.32 63.55Z" fill="#475569"/>
</svg>
