<svg width="1874" height="315" viewBox="0 0 1874 315" fill="none" xmlns="http://www.w3.org/2000/svg">
<mask id="mask0_2460_3325" style="mask-type:alpha" maskUnits="userSpaceOnUse" x="0" y="0" width="1874" height="315">
<rect x="1874" width="315" height="1874" transform="rotate(90 1874 0)" fill="#D9D9D9"/>
</mask>
<g mask="url(#mask0_2460_3325)">
<g filter="url(#filter0_ddi_2460_3325)">
<path d="M115.619 31.9999C56.7092 31.9999 24.8125 69.6961 -8 69.6961L-8.00001 302L622 302L1252 302L1881 302L1881 49.3822C1854.14 52.5872 1852.31 39.4622 1833.08 36.2573C1813.85 33.0523 1801.88 46.1773 1788.06 46.1773C1768.98 46.1773 1735.71 23.4375 1701.83 32.8997C1667.95 42.3619 1660.65 52.2748 1635.29 56.25C1607.05 60.6759 1579.89 42.6059 1553.64 46.1773C1527.39 49.7487 1520.98 62.5072 1487.71 60.6758C1438.72 57.9792 1428.98 30 1374.62 30C1315.71 30 1285.5 62 1252 67.3823C1225.14 70.5872 1223.31 57.4622 1204.08 54.2573C1184.85 51.0523 1172.88 64.1773 1159.06 64.1773C1139.98 64.1773 1106.71 41.4375 1072.83 50.8997C1038.95 60.3619 1031.65 70.2748 1006.29 74.25C978.054 78.6759 950.888 60.6059 924.638 64.1773C898.388 67.7487 891.978 80.5073 858.708 78.6759C809.718 75.9792 799.981 48 745.619 48C686.709 48 657.5 64.1773 622 51.6962L620.173 51.0535C605.017 45.7195 592.571 41.3392 574.078 38.2572C554.849 35.0523 542.877 48.1772 529.057 48.1772C509.98 48.1772 476.709 25.4374 442.828 34.8996C408.948 44.3619 401.647 54.2747 376.288 58.2499C348.054 62.6758 320.888 44.6058 294.638 48.1772C268.388 51.7487 261.978 64.5072 228.708 62.6758C179.718 59.9791 169.981 31.9999 115.619 31.9999Z" fill="url(#paint0_linear_2460_3325)" shape-rendering="crispEdges"/>
</g>
</g>
<defs>
<filter id="filter0_ddi_2460_3325" x="-43" y="15" width="1930" height="302" filterUnits="userSpaceOnUse" color-interpolation-filters="sRGB">
<feFlood flood-opacity="0" result="BackgroundImageFix"/>
<feColorMatrix in="SourceAlpha" type="matrix" values="0 0 0 0 0 0 0 0 0 0 0 0 0 0 0 0 0 0 127 0" result="hardAlpha"/>
<feOffset dx="-20"/>
<feGaussianBlur stdDeviation="7.5"/>
<feComposite in2="hardAlpha" operator="out"/>
<feColorMatrix type="matrix" values="0 0 0 0 0.834896 0 0 0 0 0.949749 0 0 0 0 0.954167 0 0 0 1 0"/>
<feBlend mode="normal" in2="BackgroundImageFix" result="effect1_dropShadow_2460_3325"/>
<feColorMatrix in="SourceAlpha" type="matrix" values="0 0 0 0 0 0 0 0 0 0 0 0 0 0 0 0 0 0 127 0" result="hardAlpha"/>
<feOffset dx="-7"/>
<feGaussianBlur stdDeviation="3"/>
<feComposite in2="hardAlpha" operator="out"/>
<feColorMatrix type="matrix" values="0 0 0 0 0.846528 0 0 0 0 0.954192 0 0 0 0 0.958333 0 0 0 1 0"/>
<feBlend mode="normal" in2="effect1_dropShadow_2460_3325" result="effect2_dropShadow_2460_3325"/>
<feBlend mode="normal" in="SourceGraphic" in2="effect2_dropShadow_2460_3325" result="shape"/>
<feColorMatrix in="SourceAlpha" type="matrix" values="0 0 0 0 0 0 0 0 0 0 0 0 0 0 0 0 0 0 127 0" result="hardAlpha"/>
<feOffset dx="6"/>
<feGaussianBlur stdDeviation="5"/>
<feComposite in2="hardAlpha" operator="arithmetic" k2="-1" k3="1"/>
<feColorMatrix type="matrix" values="0 0 0 0 1 0 0 0 0 1 0 0 0 0 1 0 0 0 1 0"/>
<feBlend mode="normal" in2="shape" result="effect3_innerShadow_2460_3325"/>
</filter>
<linearGradient id="paint0_linear_2460_3325" x1="982" y1="76.4999" x2="982" y2="233.5" gradientUnits="userSpaceOnUse">
<stop offset="0.566377" stop-color="#D7F2FC"/>
<stop offset="1" stop-color="#D7F2FC" stop-opacity="0"/>
</linearGradient>
</defs>
</svg>
