<svg width="315" height="1874" viewBox="0 0 315 1874" fill="none" xmlns="http://www.w3.org/2000/svg">
<mask id="mask0_2285_3312" style="mask-type:alpha" maskUnits="userSpaceOnUse" x="0" y="0" width="315" height="1874">
<rect width="315" height="1874" fill="#D9D9D9"/>
</mask>
<g mask="url(#mask0_2285_3312)">
<g filter="url(#filter0_ddi_2285_3312)">
<path d="M32 1758.38C32 1817.29 69.6962 1849.19 69.6962 1882H302V1252V622L302 -7L49.3822 -6.99999C52.5872 19.8605 39.4622 21.6918 36.2573 40.9215C33.0523 60.1512 46.1773 72.1233 46.1773 85.9433C46.1773 105.02 23.4375 138.291 32.8997 172.172C42.3619 206.052 52.2748 213.353 56.25 238.712C60.6759 266.946 42.6059 294.112 46.1773 320.362C49.7487 346.612 62.5073 353.022 60.6759 386.292C57.9792 435.282 30 445.019 30 499.381C30 558.291 62 588.5 67.3823 622C70.5872 648.86 57.4622 650.692 54.2573 669.922C51.0523 689.151 64.1773 701.123 64.1773 714.943C64.1773 734.02 41.4375 767.291 50.8997 801.172C60.3619 835.052 70.2748 842.353 74.25 867.712C78.6759 895.946 60.6059 923.112 64.1773 949.362C67.7488 975.612 80.5073 982.022 78.6759 1015.29C75.9792 1064.28 48 1074.02 48 1128.38C48 1187.29 64.1773 1216.5 51.6963 1252L51.0536 1253.83C45.7195 1268.98 41.3393 1281.43 38.2573 1299.92C35.0523 1319.15 48.1773 1331.12 48.1773 1344.94C48.1773 1364.02 25.4375 1397.29 34.8997 1431.17C44.3619 1465.05 54.2748 1472.35 58.25 1497.71C62.6759 1525.95 44.6059 1553.11 48.1773 1579.36C51.7487 1605.61 64.5073 1612.02 62.6759 1645.29C59.9792 1694.28 32 1704.02 32 1758.38Z" fill="url(#paint0_linear_2285_3312)" shape-rendering="crispEdges"/>
</g>
</g>
<defs>
<filter id="filter0_ddi_2285_3312" x="-5" y="-22" width="313" height="1919" filterUnits="userSpaceOnUse" color-interpolation-filters="sRGB">
<feFlood flood-opacity="0" result="BackgroundImageFix"/>
<feColorMatrix in="SourceAlpha" type="matrix" values="0 0 0 0 0 0 0 0 0 0 0 0 0 0 0 0 0 0 127 0" result="hardAlpha"/>
<feOffset dx="-20"/>
<feGaussianBlur stdDeviation="7.5"/>
<feComposite in2="hardAlpha" operator="out"/>
<feColorMatrix type="matrix" values="0 0 0 0 0.834896 0 0 0 0 0.949749 0 0 0 0 0.954167 0 0 0 1 0"/>
<feBlend mode="normal" in2="BackgroundImageFix" result="effect1_dropShadow_2285_3312"/>
<feColorMatrix in="SourceAlpha" type="matrix" values="0 0 0 0 0 0 0 0 0 0 0 0 0 0 0 0 0 0 127 0" result="hardAlpha"/>
<feOffset dx="-7"/>
<feGaussianBlur stdDeviation="3"/>
<feComposite in2="hardAlpha" operator="out"/>
<feColorMatrix type="matrix" values="0 0 0 0 0.846528 0 0 0 0 0.954192 0 0 0 0 0.958333 0 0 0 1 0"/>
<feBlend mode="normal" in2="effect1_dropShadow_2285_3312" result="effect2_dropShadow_2285_3312"/>
<feBlend mode="normal" in="SourceGraphic" in2="effect2_dropShadow_2285_3312" result="shape"/>
<feColorMatrix in="SourceAlpha" type="matrix" values="0 0 0 0 0 0 0 0 0 0 0 0 0 0 0 0 0 0 127 0" result="hardAlpha"/>
<feOffset dx="6"/>
<feGaussianBlur stdDeviation="5"/>
<feComposite in2="hardAlpha" operator="arithmetic" k2="-1" k3="1"/>
<feColorMatrix type="matrix" values="0 0 0 0 1 0 0 0 0 1 0 0 0 0 1 0 0 0 1 0"/>
<feBlend mode="normal" in2="shape" result="effect3_innerShadow_2285_3312"/>
</filter>
<linearGradient id="paint0_linear_2285_3312" x1="76.5" y1="892" x2="233.5" y2="892" gradientUnits="userSpaceOnUse">
<stop offset="0.566377" stop-color="#D7F2FC"/>
<stop offset="1" stop-color="#D7F2FC" stop-opacity="0"/>
</linearGradient>
</defs>
</svg>
