<svg width="370" height="617" viewBox="0 0 370 617" fill="none" xmlns="http://www.w3.org/2000/svg">
  <mask id="mask0_2225_3002" style="mask-type:alpha" maskUnits="userSpaceOnUse" x="0" y="0"
    width="370" height="617">
    <rect width="370" height="617" fill="#D9D9D9" />
  </mask>
  <g mask="url(#mask0_2225_3002)">
    <g filter="url(#filter0_ddi_2225_3002)">
      <path
        d="M27 117.619C27 58.7093 64.6962 26.8125 64.6962 -6L281 -6L281 624L46.3822 624C49.5872 597.14 36.4622 595.308 33.2572 576.078C30.0523 556.849 43.1773 544.877 43.1773 531.057C43.1773 511.98 20.4375 478.709 29.8997 444.828C39.3619 410.948 49.2748 403.647 53.25 378.288C57.6759 350.054 39.6059 322.888 43.1773 296.638C46.7487 270.388 59.5073 263.978 57.6759 230.708C54.9792 181.718 27 171.981 27 117.619Z"
        fill="url(#paint0_linear_2225_3002)" shape-rendering="crispEdges" />
    </g>
    <g filter="url(#filter1_ddi_2225_3002)">
      <path
        d="M99 500.381C99 559.291 136.696 591.187 136.696 624L353 624L353 -6.00001L118.382 -6C121.587 20.8605 108.462 22.6918 105.257 41.9215C102.052 61.1512 115.177 73.1233 115.177 86.9433C115.177 106.02 92.4375 139.291 101.9 173.172C111.362 207.052 121.275 214.353 125.25 239.712C129.676 267.946 111.606 295.112 115.177 321.362C118.749 347.612 131.507 354.022 129.676 387.292C126.979 436.282 99 446.019 99 500.381Z"
        fill="url(#paint1_linear_2225_3002)" shape-rendering="crispEdges" />
    </g>
    <g filter="url(#filter2_ddi_2225_3002)">
      <path
        d="M171 117.622C171 58.7116 208.696 26.8147 208.696 -5.99776L383.5 -5.99997L383.5 624L190.382 624.003C193.587 597.143 180.462 595.311 177.257 576.081C174.052 556.852 187.177 544.88 187.177 531.06C187.177 511.983 164.437 478.712 173.9 444.831C183.362 410.95 193.275 403.649 197.25 378.29C201.676 350.056 183.606 322.89 187.177 296.64C190.749 270.39 203.507 263.98 201.676 230.71C198.979 181.72 171 171.984 171 117.622Z"
        fill="url(#paint2_linear_2225_3002)" shape-rendering="crispEdges" />
    </g>
  </g>
  <defs>
    <filter id="filter0_ddi_2225_3002" x="-8" y="-21" width="295" height="660"
      filterUnits="userSpaceOnUse" color-interpolation-filters="sRGB">
      <feFlood flood-opacity="0" result="BackgroundImageFix" />
      <feColorMatrix in="SourceAlpha" type="matrix"
        values="0 0 0 0 0 0 0 0 0 0 0 0 0 0 0 0 0 0 127 0" result="hardAlpha" />
      <feOffset dx="-20" />
      <feGaussianBlur stdDeviation="7.5" />
      <feComposite in2="hardAlpha" operator="out" />
      <feColorMatrix type="matrix"
        values="0 0 0 0 0.972549 0 0 0 0 0.980392 0 0 0 0 0.988235 0 0 0 1 0" />
      <feBlend mode="normal" in2="BackgroundImageFix" result="effect1_dropShadow_2225_3002" />
      <feColorMatrix in="SourceAlpha" type="matrix"
        values="0 0 0 0 0 0 0 0 0 0 0 0 0 0 0 0 0 0 127 0" result="hardAlpha" />
      <feOffset dx="-7" />
      <feGaussianBlur stdDeviation="3" />
      <feComposite in2="hardAlpha" operator="out" />
      <feColorMatrix type="matrix"
        values="0 0 0 0 0.945098 0 0 0 0 0.960784 0 0 0 0 0.976471 0 0 0 1 0" />
      <feBlend mode="normal" in2="effect1_dropShadow_2225_3002"
        result="effect2_dropShadow_2225_3002" />
      <feBlend mode="normal" in="SourceGraphic" in2="effect2_dropShadow_2225_3002" result="shape" />
      <feColorMatrix in="SourceAlpha" type="matrix"
        values="0 0 0 0 0 0 0 0 0 0 0 0 0 0 0 0 0 0 127 0" result="hardAlpha" />
      <feOffset dx="6" />
      <feGaussianBlur stdDeviation="5" />
      <feComposite in2="hardAlpha" operator="arithmetic" k2="-1" k3="1" />
      <feColorMatrix type="matrix" values="0 0 0 0 1 0 0 0 0 1 0 0 0 0 1 0 0 0 1 0" />
      <feBlend mode="normal" in2="shape" result="effect3_innerShadow_2225_3002" />
    </filter>
    <filter id="filter1_ddi_2225_3002" x="64" y="-21" width="295" height="660"
      filterUnits="userSpaceOnUse" color-interpolation-filters="sRGB">
      <feFlood flood-opacity="0" result="BackgroundImageFix" />
      <feColorMatrix in="SourceAlpha" type="matrix"
        values="0 0 0 0 0 0 0 0 0 0 0 0 0 0 0 0 0 0 127 0" result="hardAlpha" />
      <feOffset dx="-20" />
      <feGaussianBlur stdDeviation="7.5" />
      <feComposite in2="hardAlpha" operator="out" />
      <feColorMatrix type="matrix"
        values="0 0 0 0 0.834896 0 0 0 0 0.949749 0 0 0 0 0.954167 0 0 0 1 0" />
      <feBlend mode="normal" in2="BackgroundImageFix" result="effect1_dropShadow_2225_3002" />
      <feColorMatrix in="SourceAlpha" type="matrix"
        values="0 0 0 0 0 0 0 0 0 0 0 0 0 0 0 0 0 0 127 0" result="hardAlpha" />
      <feOffset dx="-7" />
      <feGaussianBlur stdDeviation="3" />
      <feComposite in2="hardAlpha" operator="out" />
      <feColorMatrix type="matrix"
        values="0 0 0 0 0.846528 0 0 0 0 0.954192 0 0 0 0 0.958333 0 0 0 1 0" />
      <feBlend mode="normal" in2="effect1_dropShadow_2225_3002"
        result="effect2_dropShadow_2225_3002" />
      <feBlend mode="normal" in="SourceGraphic" in2="effect2_dropShadow_2225_3002" result="shape" />
      <feColorMatrix in="SourceAlpha" type="matrix"
        values="0 0 0 0 0 0 0 0 0 0 0 0 0 0 0 0 0 0 127 0" result="hardAlpha" />
      <feOffset dx="6" />
      <feGaussianBlur stdDeviation="5" />
      <feComposite in2="hardAlpha" operator="arithmetic" k2="-1" k3="1" />
      <feColorMatrix type="matrix" values="0 0 0 0 1 0 0 0 0 1 0 0 0 0 1 0 0 0 1 0" />
      <feBlend mode="normal" in2="shape" result="effect3_innerShadow_2225_3002" />
    </filter>
    <filter id="filter2_ddi_2225_3002" x="136" y="-21" width="253.5" height="660.003"
      filterUnits="userSpaceOnUse" color-interpolation-filters="sRGB">
      <feFlood flood-opacity="0" result="BackgroundImageFix" />
      <feColorMatrix in="SourceAlpha" type="matrix"
        values="0 0 0 0 0 0 0 0 0 0 0 0 0 0 0 0 0 0 127 0" result="hardAlpha" />
      <feOffset dx="-20" />
      <feGaussianBlur stdDeviation="7.5" />
      <feComposite in2="hardAlpha" operator="out" />
      <feColorMatrix type="matrix"
        values="0 0 0 0 0.843137 0 0 0 0 0.94902 0 0 0 0 0.988235 0 0 0 1 0" />
      <feBlend mode="normal" in2="BackgroundImageFix" result="effect1_dropShadow_2225_3002" />
      <feColorMatrix in="SourceAlpha" type="matrix"
        values="0 0 0 0 0 0 0 0 0 0 0 0 0 0 0 0 0 0 127 0" result="hardAlpha" />
      <feOffset dx="-7" />
      <feGaussianBlur stdDeviation="3" />
      <feComposite in2="hardAlpha" operator="out" />
      <feColorMatrix type="matrix"
        values="0 0 0 0 0.805556 0 0 0 0 0.922104 0 0 0 0 0.966667 0 0 0 1 0" />
      <feBlend mode="normal" in2="effect1_dropShadow_2225_3002"
        result="effect2_dropShadow_2225_3002" />
      <feBlend mode="normal" in="SourceGraphic" in2="effect2_dropShadow_2225_3002" result="shape" />
      <feColorMatrix in="SourceAlpha" type="matrix"
        values="0 0 0 0 0 0 0 0 0 0 0 0 0 0 0 0 0 0 127 0" result="hardAlpha" />
      <feOffset dx="6" />
      <feGaussianBlur stdDeviation="5" />
      <feComposite in2="hardAlpha" operator="arithmetic" k2="-1" k3="1" />
      <feColorMatrix type="matrix" values="0 0 0 0 1 0 0 0 0 1 0 0 0 0 1 0 0 0 1 0" />
      <feBlend mode="normal" in2="shape" result="effect3_innerShadow_2225_3002" />
    </filter>
    <linearGradient id="paint0_linear_2225_3002" x1="27" y1="309" x2="158" y2="309"
      gradientUnits="userSpaceOnUse">
      <stop offset="0.677915" stop-color="#E0FAFB" />
      <stop offset="1" stop-color="#E0FAFB" stop-opacity="0" />
    </linearGradient>
    <linearGradient id="paint1_linear_2225_3002" x1="99" y1="309" x2="256.5" y2="309"
      gradientUnits="userSpaceOnUse">
      <stop offset="0.566377" stop-color="#D7F2FC" />
      <stop offset="1" stop-color="#D7F2FC" stop-opacity="0" />
    </linearGradient>
    <linearGradient id="paint2_linear_2225_3002" x1="171" y1="309" x2="347" y2="309"
      gradientUnits="userSpaceOnUse">
      <stop stop-color="#DEE9FE" />
      <stop offset="1" stop-color="#F3EDFD" stop-opacity="0" />
    </linearGradient>
  </defs>
</svg>