<svg width="98" height="97" viewBox="0 0 98 97" fill="none" xmlns="http://www.w3.org/2000/svg">
<rect width="98" height="97" rx="23" fill="#1E293B"/>
<g filter="url(#filter0_di_1081_8)">
<path d="M54.45 38.21C54.45 47.87 47.87 54.45 38 54.45H28V71.74H18V22H38C47.87 22 54.45 28.55 54.45 38.21ZM44.23 38.35C44.23 33.59 41.01 30.72 36.32 30.72H27.99V46.12H36.32C41.01 46.12 44.23 43.25 44.23 38.35Z" fill="#A5A6FF"/>
<path d="M85.6001 38.49L84.0601 47.49L83.7801 47.7C82.1577 46.5756 80.2237 45.9881 78.2501 46.02C75.4008 46.1679 72.6861 47.2785 70.5501 49.17V71.74H60.6001V37.37L69.4201 36.74L70.5501 43.74C73.1301 39.54 76.3601 36.74 80.1401 36.74C82.0979 36.7405 84.0068 37.3523 85.6001 38.49Z" fill="#A5A6FF"/>
</g>
<defs>
<filter id="filter0_di_1081_8" x="8" y="16" width="87.6001" height="69.74" filterUnits="userSpaceOnUse" color-interpolation-filters="sRGB">
<feFlood flood-opacity="0" result="BackgroundImageFix"/>
<feColorMatrix in="SourceAlpha" type="matrix" values="0 0 0 0 0 0 0 0 0 0 0 0 0 0 0 0 0 0 127 0" result="hardAlpha"/>
<feOffset dy="4"/>
<feGaussianBlur stdDeviation="5"/>
<feComposite in2="hardAlpha" operator="out"/>
<feColorMatrix type="matrix" values="0 0 0 0 0 0 0 0 0 0 0 0 0 0 0 0 0 0 0.25 0"/>
<feBlend mode="normal" in2="BackgroundImageFix" result="effect1_dropShadow_1081_8"/>
<feBlend mode="normal" in="SourceGraphic" in2="effect1_dropShadow_1081_8" result="shape"/>
<feColorMatrix in="SourceAlpha" type="matrix" values="0 0 0 0 0 0 0 0 0 0 0 0 0 0 0 0 0 0 127 0" result="hardAlpha"/>
<feOffset dx="-3" dy="-2"/>
<feGaussianBlur stdDeviation="2"/>
<feComposite in2="hardAlpha" operator="arithmetic" k2="-1" k3="1"/>
<feColorMatrix type="matrix" values="0 0 0 0 0.239216 0 0 0 0 0.247059 0 0 0 0 0.87451 0 0 0 1 0"/>
<feBlend mode="normal" in2="shape" result="effect2_innerShadow_1081_8"/>
</filter>
</defs>
</svg>
