<svg width="90" height="90" viewBox="0 0 90 90" fill="none" xmlns="http://www.w3.org/2000/svg">
<path d="M47.63 33.21C47.63 42.87 41.05 49.45 31.18 49.45H21.18V66.74H11.18V17H31.18C41.05 17 47.63 23.55 47.63 33.21ZM37.41 33.35C37.41 28.59 34.19 25.72 29.5 25.72H21.17V41.12H29.5C34.19 41.12 37.41 38.25 37.41 33.35V33.35Z" fill="#475569"/>
<path d="M78.78 33.49L77.24 42.49L76.96 42.7C75.3376 41.5756 73.4036 40.9881 71.43 41.02C68.5807 41.1679 65.866 42.2785 63.73 44.17V66.74H53.78V32.37L62.6 31.74L63.73 38.74C66.31 34.54 69.54 31.74 73.32 31.74C75.2778 31.7405 77.1867 32.3523 78.78 33.49V33.49Z" fill="#475569"/>
</svg>
