<svg width="90" height="90" viewBox="0 0 90 90" fill="none" xmlns="http://www.w3.org/2000/svg">
<path d="M47.6299 33.21C47.6299 42.87 41.0499 49.45 31.1799 49.45H21.1799V66.74H11.1799V17H31.1799C41.0499 17 47.6299 23.55 47.6299 33.21ZM37.4099 33.35C37.4099 28.59 34.1899 25.72 29.4999 25.72H21.1699V41.12H29.4999C34.1899 41.12 37.4099 38.25 37.4099 33.35Z" fill="#A5A6FF"/>
<path d="M78.78 33.49L77.24 42.49L76.96 42.7C75.3376 41.5756 73.4036 40.9881 71.43 41.02C68.5807 41.1679 65.866 42.2785 63.73 44.17V66.74H53.78V32.37L62.6 31.74L63.73 38.74C66.31 34.54 69.54 31.74 73.32 31.74C75.2778 31.7405 77.1867 32.3523 78.78 33.49Z" fill="#A5A6FF"/>
</svg>
