<svg width="90" height="90" viewBox="0 0 90 90" fill="none" xmlns="http://www.w3.org/2000/svg">
<path d="M47.17 33.21C47.17 42.87 40.59 49.45 30.72 49.45H20.72V66.74H10.77V17H30.77C40.59 17 47.17 23.55 47.17 33.21ZM37 33.35C37 28.59 33.78 25.72 29.09 25.72H20.71V41.12H29C33.73 41.12 37 38.25 37 33.35Z" fill="#3CAEFD"/>
<path d="M50.6699 64.36L51.9299 57.36C55.6849 58.9974 59.7335 59.8547 63.8299 59.88C67.3999 59.88 68.9999 59 68.9999 57.29C68.9999 55.58 67.8099 55.05 65.9999 54.35L59.7699 51.69C54.6599 49.52 51.5099 46.69 51.5099 41.75C51.5099 35.03 57.3199 31.75 66.0699 31.75C70.4099 31.75 75.1699 32.52 77.8999 33.75L76.4999 41C73.2896 39.8551 69.9082 39.2633 66.4999 39.25C63.1399 39.25 61.7399 40.16 61.7399 41.91C61.7399 43.38 62.5799 43.91 64.3299 44.71L71.7499 47.86C76.7499 50.03 79.2399 53.25 79.2399 57.45C79.2399 63.96 73.2399 67.45 64.3299 67.45C59.1399 67.44 53.8899 66.25 50.6699 64.36Z" fill="#3CAEFD"/>
</svg>
