<svg width="90" height="90" viewBox="0 0 90 90" fill="none" xmlns="http://www.w3.org/2000/svg">
<path d="M47.17 33.21C47.17 42.87 40.59 49.45 30.72 49.45H20.72V66.74H10.77V17H30.77C40.59 17 47.17 23.55 47.17 33.21ZM37 33.35C37 28.59 33.78 25.72 29.09 25.72H20.71V41.12H29C33.73 41.12 37 38.25 37 33.35Z" fill="#475569"/>
<path d="M50.67 64.36L51.93 57.36C55.685 58.9974 59.7336 59.8547 63.83 59.88C67.4 59.88 69 59 69 57.29C69 55.58 67.81 55.05 66 54.35L59.77 51.69C54.66 49.52 51.51 46.69 51.51 41.75C51.51 35.03 57.32 31.75 66.07 31.75C70.41 31.75 75.17 32.52 77.9 33.75L76.5 41C73.2897 39.8551 69.9083 39.2633 66.5 39.25C63.14 39.25 61.74 40.16 61.74 41.91C61.74 43.38 62.58 43.91 64.33 44.71L71.75 47.86C76.75 50.03 79.24 53.25 79.24 57.45C79.24 63.96 73.24 67.45 64.33 67.45C59.14 67.44 53.89 66.25 50.67 64.36Z" fill="#475569"/>
</svg>
