<svg width="98" height="97" viewBox="0 0 98 97" fill="none" xmlns="http://www.w3.org/2000/svg">
<rect width="98" height="97" rx="23" fill="#F1F5F9"/>
<path d="M29.5 0V97" stroke="#CBD5E1" stroke-width="2"/>
<path d="M98 31.5H29.5" stroke="#CBD5E1" stroke-width="2"/>
<path d="M49.8013 14L27.5081 37.8743H72.084L49.8013 14Z" fill="#FEEDBA"/>
<path d="M49.8013 82.4503L27.5081 37.8743H72.084L49.8013 82.4503Z" fill="#FBAC2A"/>
<path d="M49.801 82.4503L72.0837 37.8743H87.9999L49.801 82.4503Z" fill="#E86C1F"/>
<path d="M49.8011 82.4503L10 37.8743H27.5078L49.8011 82.4503Z" fill="#E86C1F"/>
<path d="M27.5081 16.3295V37.8743L49.8013 14L27.5081 16.3295Z" fill="#FCD145"/>
<path d="M72.0837 16.3295V37.8743L49.801 14L72.0837 16.3295Z" fill="#FCD145"/>
<path d="M10 37.8743H27.5078V16.3295L10 37.8743Z" fill="#FBAC2A"/>
<path d="M88 37.8743H72.0837V16.3295L88 37.8743Z" fill="#FBAC2A"/>
</svg>
